<svg xmlns="http://www.w3.org/2000/svg" xmlns:xlink="http://www.w3.org/1999/xlink" version="1.1" x="0px" y="0px" viewBox="0 0 271.942 449.2925" style="enable-background:new 0 0 271.942 359.434;" xml:space="preserve"><g><g><path style="" d="    M108.973,238.016v-15.385v-5.934c0-7.547,6.113-13.66,13.653-13.66c3.774,0,7.189,1.527,9.66,3.999    c2.02,2.021,3.416,4.679,3.852,7.642c0.101,0.663,0.148,1.334,0.148,2.02v32.304c0,0.687-0.047,1.356-0.148,2.019    c-0.974,6.582-6.651,11.643-13.512,11.643c-3.774,0-7.182-1.528-9.653-4c-0.561-0.563-1.076-1.17-1.528-1.825" fill="none" stroke="#000000" stroke-width="9" stroke-linecap="round" stroke-linejoin="round" stroke-miterlimit="10"/><path style="" d="    M81.652,249.414v-13.247v-13.536c0-7.539,6.121-13.652,13.661-13.652c3.766,0,7.181,1.527,9.66,4c2.472,2.471,4,5.879,4,9.652    v15.385" fill="none" stroke="#000000" stroke-width="9" stroke-linecap="round" stroke-linejoin="round" stroke-miterlimit="10"/><path style="" d="    M190.632,243.063c0,7.541-6.115,13.658-13.658,13.658c-7.544,0-13.658-6.117-13.658-13.658v-20.428    c0-7.543,6.114-13.658,13.658-13.658c7.543,0,13.658,6.115,13.658,13.658V243.063z" fill="none" stroke="#000000" stroke-width="9" stroke-linecap="round" stroke-linejoin="round" stroke-miterlimit="10"/><path style="" d="    M163.304,249.002c0,7.543-6.114,13.658-13.658,13.658c-7.543,0-13.658-6.115-13.658-13.658v-32.307    c0-7.543,6.115-13.66,13.658-13.66c7.544,0,13.658,6.117,13.658,13.66V249.002z" fill="none" stroke="#000000" stroke-width="9" stroke-linecap="round" stroke-linejoin="round" stroke-miterlimit="10"/><path style="" d="    M136.287,315.637c-0.512-10.422,3.732-27.32-35.207-27.32l-4.846-13.565c4.353-2.677,8.633-7.252,12.793-13.55    c8.902-13.471,2.532-23.924-3.436-24.641c-5.969-0.717-29.134,13.539-38.639,28.588c-2.797,4.428-1.269,24.154-0.098,42.865    c0.573,9.161,20.165,21.863,29.699,27.657c0,0,2.142,0.289,10.692,0.289" fill="none" stroke="#000000" stroke-width="9" stroke-linecap="round" stroke-linejoin="round" stroke-miterlimit="10"/><path style="" d="    M163.304,336.524c0,0,3.415,0.03,8.967,0.03c3.15,0,7.524-4.133,9.521-7.602c6.199-10.791,10.4-40.842,11.719-60.279" fill="none" stroke="#000000" stroke-width="9" stroke-linecap="round" stroke-linejoin="round" stroke-miterlimit="10"/><line style="" x1="97.147" y1="336.531" x2="97.147" y2="354.934" fill="none" stroke="#000000" stroke-width="9" stroke-linecap="round" stroke-linejoin="round" stroke-miterlimit="10"/><line style="" x1="172.269" y1="354.434" x2="172.269" y2="337.148" fill="none" stroke="#000000" stroke-width="9" stroke-linecap="round" stroke-linejoin="round" stroke-miterlimit="10"/><line style="" x1="135.682" y1="337.147" x2="135.682" y2="345.732" fill="none" stroke="#000000" stroke-width="9" stroke-linecap="round" stroke-linejoin="round" stroke-miterlimit="10"/><path style="" d="    M221.663,247.024c-19.558,16.824-43.952,27.649-69.565,30.784c-3.232,0.395-6.479,0.671-9.733,0.827" fill="none" stroke="#000000" stroke-width="9" stroke-linecap="round" stroke-linejoin="round" stroke-miterlimit="10"/><path style="" d="    M141.367,278.572c-13.878,0.432-27.812-1.369-41.134-5.276" fill="none" stroke="#000000" stroke-width="9" stroke-linecap="round" stroke-linejoin="round" stroke-miterlimit="10"/><path style="" d="    M147.688,16.323c25.683,2.266,50.409,12.236,70.514,28.371c19.67,15.787,34.624,37.188,42.576,61.132    c8.309,25.018,8.859,52.462,1.591,77.801c-7.039,24.539-21.357,46.754-40.705,63.397" fill="none" stroke="#000000" stroke-width="9" stroke-linecap="round" stroke-linejoin="round" stroke-miterlimit="10"/><path style="" d="    M64.729,36.753c17.843-11.521,38.42-18.579,59.577-20.437" fill="none" stroke="#000000" stroke-width="9" stroke-linecap="round" stroke-linejoin="round" stroke-miterlimit="10"/><path style="" d="    M66.619,259.04c-25.675-15.966-45.44-40.751-55.178-69.384c-10.409-30.61-9.071-64.766,3.751-94.451    c7.119-16.482,17.65-31.441,30.729-43.736" fill="none" stroke="#000000" stroke-width="9" stroke-linecap="round" stroke-linejoin="round" stroke-miterlimit="10"/><path style="" d="    M226.399,103.118c21.144,43.278,7.144,100.278-33.092,126.881" fill="none" stroke="#000000" stroke-width="9" stroke-linecap="round" stroke-linejoin="round" stroke-miterlimit="10"/><path style="" d="    M147.05,47.271c21.155,2.319,41.274,11.491,56.947,25.881" fill="none" stroke="#000000" stroke-width="9" stroke-linecap="round" stroke-linejoin="round" stroke-miterlimit="10"/><path style="" d="    M79.87,230.854c-25.273-17.061-42.019-45.82-44.265-76.244c-2.341-31.709,11.27-63.793,35.547-84.291    c14.341-12.108,32.127-20.057,50.713-22.671" fill="none" stroke="#000000" stroke-width="9" stroke-linecap="round" stroke-linejoin="round" stroke-miterlimit="10"/><path style="" d="    M249.493,169.869c-0.729,3.586-1.615,7.14-2.657,10.648" fill="none" stroke="#000000" stroke-width="9" stroke-linecap="round" stroke-linejoin="round" stroke-miterlimit="10"/><path style="" d="    M243.094,103.121c6.045,12.737,8.738,26.885,8.894,40.931" fill="none" stroke="#000000" stroke-width="9" stroke-linecap="round" stroke-linejoin="round" stroke-miterlimit="10"/><path style="" d="    M35.748,89.13c1.327-2.291,2.734-4.535,4.218-6.728" fill="none" stroke="#000000" stroke-width="9" stroke-linecap="round" stroke-linejoin="round" stroke-miterlimit="10"/><path style="" d="    M21.931,167.933c-3.306-18.4-2.022-37.563,3.547-55.4" fill="none" stroke="#000000" stroke-width="9" stroke-linecap="round" stroke-linejoin="round" stroke-miterlimit="10"/><path style="" d="    M135.204,59.746L135.204,59.746c-6.367,0-11.575-5.209-11.575-11.575V16.076c0-6.366,5.208-11.575,11.575-11.575    c6.366,0,11.575,5.209,11.575,11.575V48.17C146.778,54.537,141.569,59.746,135.204,59.746z" fill="none" stroke="#000000" stroke-width="9" stroke-linecap="round" stroke-linejoin="round" stroke-miterlimit="10"/></g></g><text x="0" y="374.434" fill="#000000" font-size="5px" font-weight="bold" font-family="'Helvetica Neue', Helvetica, Arial-Unicode, Arial, Sans-serif">Created by Anton Barbarov</text><text x="0" y="379.434" fill="#000000" font-size="5px" font-weight="bold" font-family="'Helvetica Neue', Helvetica, Arial-Unicode, Arial, Sans-serif">from the Noun Project</text></svg>